{"glyphs":{"0":{"ha":896,"x_min":54,"x_max":958,"o":"m 556 956 l 776 958 q 958 769 958 960 q 957 728 958 750 l 164 728 q 264 882 192 814 q 426 956 342 956 l 556 956 m 383 338 l 394 375 l 468 635 l 144 635 l 74 374 q 54 238 54 303 q 69 144 54 182 q 203 25 103 60 q 361 0 258 6 l 399 -1 q 858 344 768 14 q 888 454 865 372 l 933 633 l 617 635 l 538 340 q 457 275 521 278 q 383 322 383 272 q 383 338 383 329 z "},"1":{"ha":617,"x_min":60,"x_max":658,"o":"m 574 635 l 396 -1 l 60 -1 l 238 635 l 574 635 m 597 728 l 168 728 l 317 958 l 658 958 l 597 728 z "},"2":{"ha":915,"x_min":-18,"x_max":974,"o":"m 974 728 q 946 863 974 814 q 814 958 893 958 l 474 958 q 297 888 382 958 q 181 728 211 818 l 974 728 m -18 -1 l 782 0 l 849 236 l 446 236 q 642 338 504 285 q 838 435 781 392 q 963 635 936 513 l 611 635 q 613 628 613 632 q 468 521 613 589 q 167 347 254 421 q -18 -1 -4 206 z "},"3":{"ha":918,"x_min":64,"x_max":982,"o":"m 982 728 q 956 863 982 811 q 821 958 904 958 l 481 958 q 301 886 389 958 q 188 728 219 818 l 982 728 m 474 388 q 607 332 607 388 q 572 271 607 300 q 507 236 544 247 q 444 226 475 226 q 386 271 386 226 q 392 299 386 283 l 81 299 q 72 176 64 211 q 306 -1 110 -1 l 563 -1 q 788 133 693 24 q 882 375 882 243 q 842 501 882 453 q 953 635 919 569 l 421 635 l 354 388 l 474 388 z "},"4":{"ha":958,"x_min":60,"x_max":1026,"o":"m 232 956 l 164 725 l 478 725 l 542 954 l 232 956 m 714 954 l 650 725 l 964 725 l 1026 954 l 714 954 m 453 -1 l 544 318 l 60 315 l 143 635 l 453 635 l 432 553 l 608 553 l 626 635 l 942 635 l 769 -4 l 453 -1 z "},"5":{"ha":933,"x_min":51,"x_max":1000,"o":"m 931 728 l 101 728 l 249 958 l 1000 958 l 931 728 m 467 388 q 549 382 525 388 q 599 329 599 369 q 570 260 599 290 q 501 226 542 229 q 456 224 472 224 q 375 275 375 224 q 376 294 375 285 l 65 296 q 58 176 51 208 q 292 -1 94 -1 l 565 -1 q 700 54 628 8 q 793 132 764 94 q 881 344 865 225 q 882 376 882 361 q 838 514 882 460 q 715 609 785 583 q 543 635 644 635 l 165 635 l 94 390 l 467 388 z "},"6":{"ha":950,"x_min":67,"x_max":954,"o":"m 863 267 q 525 -1 779 -4 l 256 0 q 67 200 67 1 q 172 635 67 344 l 486 635 l 479 606 l 669 606 q 893 431 893 606 q 863 267 893 364 m 563 336 q 565 361 565 350 q 546 392 565 385 q 492 396 538 393 q 407 333 425 397 l 408 346 l 407 329 q 403 303 403 314 q 429 268 403 275 q 478 267 442 265 q 560 332 543 271 l 563 336 m 772 957 q 954 768 954 957 q 951 726 954 749 l 193 726 q 290 882 221 814 q 453 957 368 957 l 772 957 z "},"7":{"ha":760,"x_min":78,"x_max":863,"o":"m 800 728 l 78 728 l 224 958 l 863 958 l 800 728 m 778 635 q 636 463 706 563 q 543 311 571 368 q 488 185 501 221 q 433 -1 454 97 l 117 -1 q 228 311 154 164 q 463 635 338 526 l 778 635 z "},"8":{"ha":886,"x_min":36,"x_max":951,"o":"m 951 728 q 924 863 951 811 q 792 958 874 958 l 450 958 q 273 888 358 958 q 160 728 188 818 l 951 728 m 150 635 q 151 589 147 607 q 189 506 161 536 q 36 217 36 376 q 190 -1 36 50 l 531 -1 q 753 135 658 24 q 849 376 849 247 q 808 504 849 451 q 924 635 889 567 l 150 635 m 492 386 q 574 332 574 386 q 476 236 574 268 q 414 226 446 226 q 331 279 331 226 q 358 333 331 307 q 492 386 413 386 z "},"9":{"ha":894,"x_min":53,"x_max":958,"o":"m 776 958 q 958 769 958 958 q 956 728 958 750 l 164 728 q 263 883 190 815 q 425 958 340 958 l 776 958 m 538 336 q 457 271 521 276 q 382 318 382 265 q 383 333 382 328 l 388 350 l 67 350 q 53 231 53 278 q 182 21 53 72 q 319 0 232 1 l 454 -1 q 600 22 554 6 q 751 132 679 51 q 944 635 864 260 l 153 635 q 147 585 147 589 q 369 400 147 397 l 556 403 l 538 336 z "}," ":{"ha":940,"x_min":0,"x_max":0,"o":""},"!":{"ha":719,"x_min":135,"x_max":736,"o":"m 736 960 l 579 392 l 243 392 l 400 960 l 736 960 m 736 960 m 538 240 l 471 -1 l 135 -1 l 201 240 l 538 240 z "},"\"":{"ha":701,"x_min":104,"x_max":811,"o":"m 251 976 l 497 976 l 351 596 l 104 596 l 251 976 m 565 976 l 811 976 l 664 596 l 418 596 l 565 976 z "},"#":{"ha":929,"x_min":189,"x_max":865,"o":"m 199 -14 l 282 274 l 189 275 l 190 375 l 311 375 l 383 619 l 260 619 l 258 719 l 411 721 l 499 1014 l 582 1013 l 494 721 l 671 718 l 754 1008 l 839 1008 l 754 718 l 864 717 l 865 619 l 725 617 l 654 372 l 796 371 l 796 269 l 625 271 l 542 -18 l 457 -17 l 540 271 l 365 274 l 282 -15 l 199 -14 m 396 374 l 569 375 l 642 618 l 467 619 l 396 374 z "},"$":{"ha":1133,"x_min":69,"x_max":1260,"o":"m 458 413 m 1025 961 l 1097 1199 l 758 1197 l 681 961 q 668 961 692 961 q 608 961 644 961 l 561 961 q 385 886 471 961 q 275 725 304 817 l 1196 725 l 1260 961 l 1025 961 m 1025 961 m 692 -235 l 350 -235 l 411 -3 l 69 -4 l 149 268 l 683 267 q 756 336 756 278 q 746 383 756 371 q 703 408 736 396 l 429 406 q 293 465 339 406 q 253 611 253 519 q 254 653 253 631 l 888 651 q 1068 575 1018 633 q 1117 517 1078 564 q 1142 361 1142 449 q 1103 185 1142 253 q 849 -3 1024 46 l 751 -4 l 692 -235 z "},"%":{"ha":1411,"x_min":206,"x_max":1311,"o":"m 953 233 q 983 158 953 189 q 1058 128 1013 128 q 1133 159 1101 128 q 1164 233 1164 190 q 1133 308 1164 278 q 1058 339 1103 339 q 983 308 1013 339 q 953 233 953 278 m 807 233 q 878 414 807 342 q 1058 486 950 486 q 1238 413 1164 486 q 1311 233 1311 339 q 1238 54 1311 128 q 1058 -19 1164 -19 q 878 53 950 -19 q 807 233 807 125 m 413 -19 l 992 979 l 1100 979 l 521 -19 l 413 -19 m 351 726 q 381 651 351 682 q 457 621 411 621 q 531 651 500 621 q 563 726 563 682 q 532 802 563 771 q 457 833 501 833 q 381 803 411 833 q 351 726 351 772 m 206 728 q 277 908 206 836 q 457 979 349 979 q 636 906 563 979 q 710 728 710 833 q 635 549 710 622 q 457 475 561 475 q 277 548 349 475 q 206 728 206 621 z "},"&":{"ha":932,"x_min":-4,"x_max":838,"o":"m 331 438 q 190 282 190 375 q 226 185 190 222 q 321 147 261 147 q 476 200 390 147 l 331 438 m 600 0 l 563 61 q 293 -22 436 -22 q 79 59 163 -22 q -4 269 -4 140 q 74 457 -4 378 q 249 571 131 515 l 217 628 q 172 768 172 706 q 250 939 172 875 q 431 999 322 999 q 614 942 542 999 q 693 772 693 881 q 492 514 693 608 l 607 328 q 675 472 661 404 l 838 472 q 697 186 804 306 l 813 0 l 600 0 m 410 647 q 518 782 518 701 q 435 857 518 857 q 347 781 347 857 q 399 665 347 743 q 410 647 401 660 z "},"'":{"ha":333,"x_min":122,"x_max":515,"o":"m 269 976 l 515 976 l 368 596 l 122 596 l 269 976 z "},"(":{"ha":454,"x_min":67,"x_max":486,"o":"m 394 -178 q 82 8 142 -178 q 67 122 67 54 q 90 303 67 211 l 178 642 l 340 642 l 256 289 q 232 103 232 190 q 246 -12 232 35 q 394 -178 281 -121 m 360 722 q 486 1086 406 933 q 293 953 382 1086 q 196 722 222 844 l 360 722 z "},")":{"ha":422,"x_min":-167,"x_max":447,"o":"m 269 642 l 433 642 q 340 261 386 442 q 222 -6 299 92 q -167 -178 90 -174 q 128 32 69 -164 q 269 642 172 182 m 288 724 l 442 724 q 447 811 447 771 q 407 996 447 924 q 254 1088 357 1083 q 308 910 308 1010 q 300 817 308 874 q 288 724 289 743 z "},"*":{"ha":694,"x_min":83,"x_max":671,"o":"m 376 603 l 258 435 l 142 515 l 272 679 l 83 732 l 128 869 l 308 804 l 308 999 l 444 999 l 444 804 l 625 868 l 671 731 l 481 679 l 610 517 l 493 432 l 376 603 z "},"+":{"ha":761,"x_min":100,"x_max":767,"o":"m 708 406 l 488 403 l 410 131 l 242 129 l 324 401 l 100 401 l 154 579 l 379 579 l 463 850 l 625 850 l 542 581 l 767 579 l 708 406 z "},",":{"ha":383,"x_min":39,"x_max":358,"o":"m 39 -228 l 61 -156 q 206 0 171 -150 l 96 0 l 153 203 l 358 203 l 304 11 q 215 -160 271 -104 q 39 -228 151 -222 z "},"-":{"ha":771,"x_min":60,"x_max":732,"o":"m 682 339 l 60 339 l 108 515 l 732 515 l 682 339 z "},".":{"ha":417,"x_min":69,"x_max":339,"o":"m 69 0 l 128 203 l 339 203 l 282 0 l 69 0 z "},"/":{"ha":585,"x_min":139,"x_max":568,"o":"m 139 -129 l 475 1025 l 568 1025 l 231 -129 l 139 -129 z "},":":{"ha":526,"x_min":76,"x_max":490,"o":"m 224 528 l 279 729 l 490 729 l 435 528 l 224 528 m 76 0 l 133 203 l 344 203 l 288 0 l 76 0 z "},";":{"ha":561,"x_min":60,"x_max":531,"o":"m 264 528 l 319 729 l 531 729 l 475 528 l 264 528 m 60 -229 l 85 -157 q 233 0 194 -151 l 122 0 l 182 200 l 388 200 l 332 10 q 60 -229 264 -219 z "},"<":{"ha":1157,"x_min":179,"x_max":978,"o":"m 978 810 l 978 661 l 372 414 l 978 167 l 978 18 l 179 347 l 179 482 l 978 810 z "},"=":{"ha":843,"x_min":139,"x_max":886,"o":"m 761 289 l 139 289 l 189 464 l 813 464 l 761 289 m 838 538 l 214 538 l 264 714 l 886 714 l 838 538 z "},">":{"ha":1157,"x_min":179,"x_max":978,"o":"m 179 810 l 978 482 l 978 347 l 179 18 l 179 167 l 786 414 l 179 661 l 179 810 z "},"?":{"ha":914,"x_min":121,"x_max":942,"o":"m 849 574 q 779 538 825 556 q 675 496 751 526 q 621 463 660 490 q 594 432 596 435 q 579 393 583 417 l 307 394 q 386 543 350 500 q 531 638 436 604 q 650 732 643 676 q 617 796 654 772 q 543 815 585 815 q 385 678 424 815 l 121 678 q 576 1000 196 1000 q 815 950 715 1000 q 942 758 942 885 q 913 640 942 686 q 849 574 903 626 m 486 0 l 178 0 l 257 240 l 561 240 l 486 0 z "},"@":{"ha":1389,"x_min":61,"x_max":1329,"o":"m 792 185 q 590 74 719 74 q 371 304 371 74 q 457 567 371 457 q 699 686 550 686 q 858 597 807 686 l 894 664 l 1015 664 l 915 258 q 911 231 911 239 q 975 183 911 183 q 1085 235 1029 183 q 1203 521 1203 346 q 1063 801 1203 699 q 753 893 936 893 q 425 801 561 893 q 186 354 186 640 q 336 11 186 133 q 701 -103 476 -103 q 1111 26 926 -103 l 1167 -53 q 704 -210 958 -210 q 271 -79 439 -210 q 61 353 61 82 q 201 756 61 585 q 757 1004 406 1004 q 1147 886 993 1004 q 1329 518 1329 747 q 1157 150 1329 289 q 938 72 1060 72 q 792 185 794 72 m 825 475 q 707 588 807 588 q 561 485 615 588 q 515 301 515 400 q 622 174 515 174 q 731 221 685 174 q 789 328 772 264 l 825 475 z "},"A":{"ha":726,"x_min":-228,"x_max":792,"o":"m 639 728 l 588 958 l 239 958 l 33 728 l 639 728 m 344 393 l 443 -1 l 792 -1 l 658 635 l -18 635 l -228 393 l 344 393 z "},"B":{"ha":1818,"x_min":163,"x_max":1876,"o":"m 446 -299 q 454 -286 454 -294 q 442 -272 454 -279 q 408 -251 429 -265 q 414 -165 408 -183 q 457 -167 429 -168 q 463 -153 458 -161 q 472 -153 467 -154 q 485 -133 479 -149 q 496 -114 492 -118 q 531 -71 513 -92 q 575 -42 550 -50 q 605 -47 585 -39 q 643 -65 625 -56 q 656 -74 650 -74 q 694 -35 667 -74 q 761 44 735 18 q 850 132 825 107 q 917 211 900 185 q 954 256 935 232 q 978 288 974 288 q 994 275 981 288 q 1025 251 1007 263 q 1040 242 1025 250 q 1054 222 1054 233 q 1015 201 1035 211 q 976 168 994 190 q 928 104 947 133 q 915 82 926 97 q 900 74 910 79 q 875 46 885 65 q 874 23 872 39 q 871 1 876 7 q 854 -58 849 -31 q 897 -78 869 -67 q 918 -78 904 -76 q 1054 -154 971 -125 q 1068 -153 1058 -154 q 1069 -141 1068 -150 q 1071 -131 1071 -132 q 1039 -104 1056 -124 q 1032 -97 1038 -104 q 1025 -90 1026 -90 q 1011 -31 1011 -62 q 1049 -25 1031 -28 q 1069 33 1065 -14 q 1165 115 1104 68 q 1207 160 1186 136 q 1247 235 1247 200 q 1215 311 1247 251 q 1083 457 1189 342 q 1108 524 1086 479 q 1138 586 1135 574 q 1186 690 1150 624 q 1196 697 1192 697 q 1238 672 1192 697 q 1369 625 1301 625 q 1450 640 1410 625 q 1483 644 1468 647 q 1518 640 1515 640 q 1531 648 1521 640 q 1544 656 1542 656 q 1572 671 1556 661 q 1590 715 1578 710 q 1649 714 1593 715 q 1678 719 1672 718 q 1708 753 1703 731 q 1729 764 1717 756 q 1732 785 1729 772 q 1743 788 1736 786 q 1750 811 1750 797 q 1772 806 1772 821 q 1772 797 1772 803 q 1758 792 1771 792 q 1738 788 1739 785 q 1756 786 1750 786 q 1772 799 1771 792 q 1778 814 1774 806 q 1796 815 1778 814 q 1858 818 1842 818 l 1861 839 q 1868 844 1865 844 l 1875 844 l 1876 865 l 1869 865 l 1865 881 q 1719 881 1806 883 q 1675 865 1704 879 q 1678 832 1678 854 q 1664 831 1672 833 q 1664 818 1665 826 q 1626 811 1636 818 q 1601 785 1614 797 q 1594 782 1599 782 q 1568 800 1582 782 q 1532 785 1558 800 q 1478 764 1501 769 q 1424 760 1454 758 q 1397 763 1397 761 q 1338 789 1338 785 q 1288 849 1303 826 q 1268 892 1275 867 q 1253 922 1263 913 q 1196 949 1239 936 q 1190 958 1192 950 q 1190 971 1188 967 q 1208 978 1197 978 q 1239 972 1214 978 q 1258 976 1256 969 q 1265 993 1260 982 q 1268 1000 1265 996 q 1268 1004 1268 1000 q 1270 1006 1269 1006 q 1273 1014 1271 1006 q 1281 1038 1275 1022 q 1285 1038 1281 1039 q 1293 1038 1290 1036 q 1296 1049 1297 1043 q 1286 1088 1292 1061 q 1288 1097 1286 1092 q 1290 1107 1290 1103 q 1288 1124 1290 1113 q 1286 1140 1286 1136 q 1294 1158 1286 1153 q 1299 1168 1301 1164 q 1268 1203 1289 1190 q 1250 1215 1265 1207 q 1201 1231 1233 1219 q 1115 1208 1139 1231 q 1086 1118 1090 1186 q 1071 1097 1085 1097 q 1044 1109 1063 1097 q 1015 1121 1026 1121 q 971 1053 988 1121 q 941 1049 963 1051 q 878 1017 919 1046 q 753 943 833 983 q 682 914 729 935 q 636 875 657 901 q 607 833 621 854 q 557 785 588 814 q 532 765 550 779 q 501 757 522 764 q 497 743 496 749 q 500 732 500 732 q 485 717 493 728 q 475 699 475 701 q 485 688 479 694 q 489 682 485 685 q 493 672 493 679 q 445 629 467 661 q 424 574 424 597 q 429 557 424 563 q 488 578 469 554 q 524 603 507 603 q 532 574 524 590 q 543 589 542 578 q 547 628 546 608 q 572 635 557 631 q 586 643 576 638 q 604 646 593 644 q 644 707 625 676 q 742 786 685 764 q 785 794 757 789 q 849 817 806 804 q 857 819 850 817 q 867 822 864 822 q 872 814 872 822 q 856 761 872 800 q 640 483 785 599 q 415 335 607 456 q 167 103 222 215 q 233 36 163 78 q 346 -7 303 -6 q 359 -15 354 -7 q 361 -31 364 -24 q 308 -83 340 -46 q 308 -128 304 -90 q 289 -150 300 -137 q 315 -214 296 -185 q 336 -219 324 -215 q 364 -268 360 -261 q 392 -299 376 -289 q 446 -299 425 -307 l 446 -299 z "},"C":{"ha":1000,"x_min":57,"x_max":1071,"o":"m 1071 958 l 1003 725 l 171 725 q 268 882 197 814 q 432 958 347 958 l 1071 958 m 874 257 l 801 -1 l 361 -1 q 69 144 132 -1 q 57 268 50 189 q 63 324 58 283 l 144 633 l 489 635 l 389 328 q 397 290 393 310 q 449 257 410 265 l 874 257 z "},"D":{"ha":1068,"x_min":11,"x_max":1111,"o":"m 1094 725 l 132 725 l 281 958 l 840 958 q 1011 887 932 958 q 1094 725 1090 815 m 1111 635 q 1017 251 1111 390 q 878 92 940 139 q 563 -1 753 -1 l 11 -1 l 193 635 l 535 635 l 419 247 q 490 233 453 233 q 635 276 560 233 q 793 472 756 344 q 815 635 813 538 l 1111 635 z "},"E":{"ha":999,"x_min":-3,"x_max":1076,"o":"m 1076 958 l 1015 725 l 110 725 l 260 958 l 1076 958 m 986 635 l 919 382 l 468 382 l 432 251 l 879 251 l 813 1 l -3 1 l 167 635 l 986 635 z "},"F":{"ha":944,"x_min":-18,"x_max":1060,"o":"m 1060 958 l 993 725 l 92 725 l 240 958 l 1060 958 m 974 635 l 897 381 l 451 381 l 347 1 l -18 1 l 158 635 l 974 635 z "},"G":{"ha":1099,"x_min":72,"x_max":1158,"o":"m 1135 958 l 1078 726 l 171 726 q 268 879 196 807 q 433 958 347 958 l 1135 958 m 1053 600 l 979 328 q 886 143 949 217 q 535 1 765 1 l 368 1 q 72 139 126 1 q 50 240 50 194 q 64 329 50 278 l 150 635 l 478 635 l 396 349 q 389 314 389 325 q 417 278 389 286 l 614 278 q 669 349 656 289 l 672 365 l 467 363 l 614 600 l 1053 600 z "},"H":{"ha":1121,"x_min":13,"x_max":1200,"o":"m 1125 958 l 1064 725 l 725 725 l 790 958 l 1125 958 m 540 958 l 478 725 l 144 725 l 206 958 l 540 958 m 1036 635 l 864 0 l 528 0 l 628 383 l 385 383 l 278 1 l -62 1 l 113 635 l 1036 635 z "},"I":{"ha":504,"x_min":-7,"x_max":589,"o":"m 567 958 l 503 725 l 168 725 l 235 958 l 567 958 m 482 635 l 308 1 l -29 1 l 147 635 l 482 635 z "},"J":{"ha":1071,"x_min":53,"x_max":1147,"o":"m 1128 958 l 1064 725 l 742 725 l 807 958 l 1128 958 m 1040 635 q 961 342 983 408 q 856 142 917 206 q 504 1 728 1 l 340 1 q 47 142 104 1 q 33 226 33 175 q 51 369 33 286 l 372 369 l 350 289 q 343 254 343 261 q 371 218 343 226 l 568 218 q 624 289 607 228 l 721 635 l 1040 635 z "},"K":{"ha":1178,"x_min":10,"x_max":1261,"o":"m 1261 956 l 1040 728 l 638 728 l 864 956 l 1261 956 m 614 958 l 549 725 l 218 725 l 285 958 l 614 958 m 999 1 l 653 1 l 457 388 l 346 1 l 10 1 l 193 635 l 956 635 l 769 447 l 999 1 z "},"L":{"ha":1522,"x_min":-8,"x_max":1578,"o":"m 1428 726 l 1379 956 l 1028 956 l 822 726 l 1428 726 m 1136 378 l 1229 -3 l 1578 -3 l 1443 636 l 767 636 l 565 381 l 1136 378 m 521 729 l 179 729 l 246 956 l 586 957 l 521 729 m 814 242 l 388 242 l 501 640 l 161 640 l -8 0 l 624 0 l 814 242 z "},"M":{"ha":1272,"x_min":1,"x_max":1367,"o":"m 1367 958 l 1301 725 l 201 725 l 267 958 l 592 958 l 785 774 l 1021 958 l 1367 958 m 1279 635 l 1100 1 l 754 1 l 913 571 l 678 381 l 483 571 l 322 1 l 1 1 l 178 635 l 1279 635 z "},"N":{"ha":1081,"x_min":14,"x_max":1193,"o":"m 1142 958 l 1072 726 l 163 726 l 228 958 l 543 958 l 749 763 l 799 958 l 1142 958 m 1054 635 l 885 1 l 536 1 l 643 386 l 440 571 l 279 0 l -39 0 l 135 635 l 1054 635 z "},"O":{"ha":1015,"x_min":64,"x_max":1094,"o":"m 1094 725 l 179 725 q 274 885 207 819 q 443 964 356 964 l 915 964 q 1094 774 1094 964 q 1094 725 1094 726 m 1075 636 l 1069 614 q 993 350 1047 542 q 886 147 958 229 q 536 0 756 0 l 371 0 q 160 50 238 0 q 64 235 64 110 q 85 376 64 301 l 154 633 l 478 633 l 382 296 q 376 260 376 272 q 401 225 376 232 l 603 225 q 658 296 640 235 l 758 635 l 1075 636 z "},"P":{"ha":1160,"x_min":57,"x_max":1244,"o":"m 1244 726 l 176 726 l 319 958 l 1104 958 q 1169 936 1136 958 q 1218 883 1203 914 q 1244 726 1244 835 m 1219 635 q 1193 554 1214 600 q 801 383 1111 383 l 482 383 l 375 1 l 57 1 l 231 633 l 1219 635 z "},"Q":{"ha":1057,"x_min":57,"x_max":1085,"o":"m 1083 728 l 167 728 q 264 883 193 814 q 428 958 343 958 l 903 958 q 1085 768 1085 958 q 1083 728 1085 749 m 1060 635 l 997 379 q 879 144 961 233 q 861 131 876 142 l 971 -1 l 721 -1 l 693 29 q 526 0 608 0 l 364 0 q 71 144 128 0 q 57 238 57 181 q 75 375 57 304 l 144 635 l 471 635 l 374 292 q 367 258 367 268 q 394 222 367 231 l 526 222 l 411 354 l 665 354 l 740 635 l 1060 635 z "},"R":{"ha":6486,"x_min":0,"x_max":6454,"o":"m 2546 0 q 2553 10 2553 3 q 2543 19 2553 14 q 2517 35 2533 25 q 2521 97 2517 85 q 2554 96 2533 96 q 2560 106 2556 100 q 2563 106 2560 107 q 2567 106 2567 106 q 2585 133 2572 117 q 2612 166 2597 150 q 2647 188 2626 182 q 2700 171 2651 189 q 2710 164 2704 164 q 2740 192 2718 164 q 2792 250 2771 231 q 2913 371 2842 296 q 2940 403 2925 386 q 2960 426 2956 426 q 2972 417 2963 426 q 2996 400 2982 408 q 3007 392 2996 399 q 3018 378 3018 386 q 2958 340 3000 372 q 2921 293 2936 314 q 2911 276 2919 288 q 2899 271 2907 275 q 2881 253 2890 267 q 2878 235 2876 247 q 2876 218 2881 222 q 2864 175 2858 196 q 2897 161 2875 168 q 2913 161 2903 163 q 3018 106 2954 126 q 3029 106 3022 106 q 3031 115 3029 108 q 3032 122 3032 121 q 3007 142 3019 128 q 3001 147 3006 142 q 2996 151 2997 151 q 2985 194 2985 172 q 3014 202 3000 197 q 3031 242 3028 207 q 3104 301 3057 267 q 3138 333 3121 315 q 3169 388 3169 363 q 3143 443 3169 400 q 3042 550 3122 465 q 3062 599 3043 565 q 3083 642 3081 632 q 3121 718 3093 669 q 3129 722 3125 722 q 3161 704 3125 722 q 3263 671 3211 671 q 3325 682 3293 671 q 3350 685 3339 686 q 3378 682 3375 681 q 3388 687 3381 682 q 3397 693 3396 692 q 3419 704 3407 696 q 3433 736 3424 732 q 3479 735 3436 736 q 3501 739 3497 738 q 3525 764 3521 747 q 3542 771 3532 765 q 3544 786 3542 778 q 3553 789 3547 788 q 3558 806 3558 796 q 3572 807 3567 808 q 3574 797 3578 804 q 3564 792 3574 792 q 3549 789 3549 788 q 3563 788 3558 788 q 3575 797 3574 792 q 3579 808 3576 801 q 3593 808 3581 808 q 3642 811 3629 811 l 3644 825 q 3649 829 3647 829 l 3649 829 l 3654 829 l 3656 846 l 3650 846 l 3647 857 q 3533 857 3601 858 q 3500 846 3522 854 q 3501 821 3501 838 q 3490 819 3497 821 q 3490 811 3492 817 q 3463 806 3469 810 q 3442 786 3453 796 q 3417 797 3432 778 q 3347 771 3399 788 q 3283 769 3315 771 q 3238 790 3238 786 q 3200 833 3207 824 q 3181 876 3190 854 q 3129 906 3172 893 q 3124 913 3125 906 q 3126 924 3122 919 q 3139 928 3129 928 q 3163 924 3143 928 q 3177 926 3175 921 q 3182 939 3179 931 q 3185 943 3182 940 q 3185 946 3185 943 q 3185 947 3185 947 q 3188 953 3186 947 q 3194 971 3190 960 q 3199 970 3194 971 q 3204 971 3203 969 q 3207 978 3208 974 q 3199 1007 3203 988 q 3200 1014 3199 1010 q 3201 1019 3201 1018 q 3200 1033 3201 1024 q 3199 1044 3199 1042 q 3204 1057 3199 1053 q 3208 1065 3210 1061 q 3185 1090 3201 1081 q 3171 1100 3182 1093 q 3133 1111 3158 1103 q 3066 1094 3085 1111 q 3043 1029 3047 1078 q 3017 1019 3042 1003 q 2989 1031 2999 1031 q 2954 982 2967 1031 q 2931 978 2947 981 q 2881 953 2914 976 q 2785 901 2847 931 q 2729 881 2765 896 q 2694 851 2711 871 q 2671 822 2682 838 q 2614 772 2653 804 q 2589 767 2606 771 q 2588 749 2588 765 q 2576 736 2583 746 q 2569 724 2569 726 q 2576 715 2572 721 q 2580 712 2576 714 q 2583 704 2583 710 q 2546 673 2563 696 q 2529 633 2529 650 q 2533 621 2529 625 q 2578 637 2564 619 q 2607 654 2593 654 q 2614 633 2607 646 q 2622 644 2621 636 q 2625 672 2624 658 q 2644 678 2633 675 q 2656 683 2649 681 q 2668 686 2663 685 q 2688 710 2674 688 q 2776 788 2722 768 q 2810 793 2788 789 q 2858 810 2825 800 q 2865 812 2860 810 q 2874 814 2871 814 q 2878 808 2878 814 q 2864 769 2878 797 q 2697 568 2810 651 q 2523 462 2674 550 q 2329 292 2372 374 q 2381 243 2326 274 q 2468 213 2436 213 q 2481 194 2486 213 q 2440 157 2465 185 q 2440 125 2436 151 q 2424 108 2433 118 q 2446 63 2429 83 q 2461 57 2451 61 q 2504 0 2474 35 q 2546 0 2529 -6 l 2546 0 l 2546 0 l 2546 0 m 3899 553 l 3378 553 l 3449 663 l 3832 663 q 3888 628 3868 663 q 3899 553 3899 606 l 3899 553 l 3899 553 l 3899 553 l 3899 553 l 3899 553 l 3899 553 m 3892 508 q 3844 431 3886 467 q 3813 410 3828 417 q 3828 358 3828 383 q 3824 315 3828 340 q 3789 201 3821 303 l 3789 201 l 3789 201 l 3638 201 l 3692 386 l 3533 386 l 3475 201 l 3318 201 l 3408 508 l 3892 508 m 4404 661 l 4374 553 l 4219 553 l 4251 663 l 4404 661 m 4125 663 l 4093 553 l 3942 553 l 3974 663 l 4125 663 m 4363 508 l 4278 203 l 4031 201 q 3888 271 3915 201 q 3879 308 3879 290 q 3882 329 3879 319 l 3882 329 l 3882 329 l 3932 508 l 4082 510 l 4033 343 q 4031 326 4031 332 q 4044 308 4031 313 l 4044 308 l 4044 308 l 4153 308 l 4208 508 l 4363 508 m 4921 664 l 4888 553 l 4446 553 l 4478 664 l 4632 664 l 4731 569 l 4756 664 l 4921 664 m 4879 508 l 4797 203 l 4628 203 l 4681 389 l 4581 478 l 4501 201 l 4349 201 l 4432 508 l 4879 508 m 5457 664 l 5424 553 l 4981 553 l 5013 664 l 5167 664 l 5267 569 l 5290 664 l 5457 664 m 5415 508 l 5332 203 l 5163 203 l 5214 389 l 5117 478 l 5038 201 l 4883 201 l 4968 508 l 5415 508 m 5925 663 l 5894 553 l 5456 553 l 5528 663 l 5925 663 m 5882 508 l 5849 385 l 5629 385 l 5611 324 l 5829 324 l 5796 201 l 5400 201 l 5483 508 l 5882 508 m 6454 553 l 5932 553 l 6003 663 l 6388 663 q 6443 628 6421 663 q 6454 553 6454 603 l 6454 553 l 6454 553 l 6454 553 l 6454 553 l 6454 553 l 6454 553 m 6447 508 q 6400 431 6440 465 q 6368 410 6382 415 q 6383 358 6383 383 q 6378 315 6383 354 q 6343 201 6375 296 l 6343 201 l 6343 201 l 6193 201 l 6246 386 l 6086 386 l 6031 201 l 5872 201 l 5963 508 l 6447 508 m 536 553 l 253 553 l 253 665 l 449 667 q 536 571 536 667 q 536 553 536 557 l 536 553 l 536 553 l 536 553 l 536 553 l 536 553 l 536 553 m 253 201 l 253 325 l 292 325 q 318 350 318 325 q 304 372 318 368 l 304 372 l 304 372 l 253 372 l 253 508 l 531 508 q 478 443 531 465 q 499 408 494 418 q 507 365 507 393 q 507 351 507 358 q 463 256 503 297 q 368 201 424 215 l 368 201 l 368 201 l 253 201 m 253 553 l 253 553 l 253 553 l 253 665 l 149 665 l 51 553 l 253 553 m 253 508 l 253 508 l 90 508 l 0 203 l 253 201 l 253 325 l 186 325 l 199 372 l 253 372 l 253 508 m 832 204 l 863 243 l 863 321 l 832 321 l 832 204 m 892 321 l 892 282 l 863 243 l 863 321 l 892 321 m 892 282 l 892 321 l 922 321 l 892 282 m 2322 663 l 2293 551 l 1853 551 l 1925 663 l 2322 663 m 2279 507 l 2246 383 l 2026 383 l 2010 322 l 2228 322 l 2194 201 l 1797 201 l 1881 507 l 2279 507 m 779 556 l 613 556 l 646 664 l 811 665 l 779 556 m 832 321 l 715 321 l 769 514 l 604 514 l 522 203 l 829 203 l 832 204 l 832 321 m 1221 554 l 1196 664 l 1025 664 l 926 554 l 1221 554 m 1803 553 l 1335 553 l 1407 665 l 1679 665 q 1762 631 1724 665 q 1803 553 1800 596 l 1803 553 l 1803 553 l 1803 553 l 1803 553 l 1803 553 m 803 386 l 1079 386 l 1124 201 l 1544 201 q 1697 247 1636 201 q 1811 508 1811 332 l 1811 508 l 1811 508 l 1667 508 q 1657 431 1667 465 q 1599 350 1643 385 q 1508 315 1556 315 q 1475 322 1490 315 l 1475 322 l 1475 322 l 1531 508 l 1364 508 l 1286 236 l 1226 511 l 900 511 l 892 501 l 863 464 l 803 386 z "},"S":{"ha":1103,"x_min":18,"x_max":1182,"o":"m 1157 958 l 1094 728 l 194 728 q 301 885 224 817 q 474 958 386 958 l 1157 958 m 922 89 q 750 0 867 32 l -8 1 l 65 265 l 590 263 q 658 329 658 271 q 649 376 658 364 q 607 400 640 389 l 339 400 q 211 444 251 400 q 171 586 171 488 q 171 635 171 635 l 785 635 q 936 590 897 621 q 1011 508 942 586 q 1038 357 1038 442 q 922 89 1038 203 z "},"T":{"ha":1017,"x_min":128,"x_max":1117,"o":"m 1117 958 l 1053 728 l 128 728 l 275 958 l 1117 958 m 757 635 l 589 1 l 271 1 l 443 635 l 757 635 z "},"U":{"ha":1026,"x_min":36,"x_max":1118,"o":"m 1122 954 l 1057 725 l 740 725 l 804 954 l 1122 954 m 544 954 l 481 725 l 168 725 l 233 953 l 544 954 m 1035 635 l 860 1 l 351 0 q 56 143 113 0 q 40 221 40 182 q 46 263 40 243 l 149 635 l 457 635 l 358 290 q 351 256 351 267 q 379 219 351 228 l 601 219 l 718 635 l 1035 635 z "},"V":{"ha":1279,"x_min":139,"x_max":1472,"o":"m 1472 956 l 1294 728 l 846 728 l 1011 958 l 1472 956 m 543 728 l 186 728 l 139 958 l 488 958 l 543 728 m 1215 636 l 683 1 l 335 1 l 203 636 l 563 636 l 614 424 l 765 635 l 1215 636 z "},"W":{"ha":1258,"x_min":0,"x_max":1351,"o":"m 1351 957 l 1294 726 l 965 726 l 1032 957 l 1351 957 m 603 958 l 539 726 l 197 726 l 263 958 l 603 958 m 1267 635 l 1090 0 l 768 1 l 569 181 l 332 1 l 0 0 l 176 635 l 517 635 l 446 401 l 682 590 l 872 401 l 942 635 l 1267 635 z "},"X":{"ha":1026,"x_min":-126,"x_max":1219,"o":"m 1219 957 l 996 726 l 324 728 l 268 954 l 617 954 l 643 846 l 746 956 l 1219 957 m 910 635 l 742 450 l 836 0 l 475 1 l 449 118 l 344 0 l -126 0 l 361 539 l 342 632 l 910 635 z "},"Y":{"ha":910,"x_min":106,"x_max":1060,"o":"m 1060 961 l 850 726 l 171 726 l 121 957 l 469 957 l 496 850 l 599 963 l 1060 961 m 763 635 l 593 453 l 469 1 l 106 1 l 235 456 l 194 632 l 763 635 z "},"Z":{"ha":969,"x_min":-47,"x_max":1046,"o":"m 1117 960 l 1057 728 l 135 728 l 285 958 l 1117 960 m 1040 636 l 522 257 l 929 257 l 858 1 l 22 1 l 97 260 l 642 635 l 1040 636 z "},"[":{"ha":585,"x_min":43,"x_max":628,"o":"m 169 -181 l 304 -181 l 272 -287 l 43 -287 l 296 635 l 393 635 l 169 -181 m 460 897 l 594 896 l 628 997 l 388 994 l 321 728 l 415 728 l 460 897 z "},"\\":{"ha":653,"x_min":147,"x_max":506,"o":"m 383 -17 l 147 1011 l 269 1013 l 506 -15 l 383 -17 z "},"]":{"ha":522,"x_min":1,"x_max":550,"o":"m 158 -181 l 26 -181 l 1 -286 l 226 -286 l 469 633 l 381 633 l 158 -181 m 550 985 l 332 985 l 311 885 l 442 885 l 400 726 l 488 728 l 550 985 z "},"^":{"ha":1389,"x_min":282,"x_max":1106,"o":"m 608 990 l 779 990 l 1106 610 l 946 610 l 694 861 l 442 610 l 282 610 l 608 990 z "},"_":{"ha":694,"x_min":0,"x_max":694,"o":"m 0 -189 l 694 -189 l 694 -328 l 0 -328 l 0 -189 z "},"`":{"ha":333,"x_min":122,"x_max":515,"o":"m 269 976 l 515 976 l 368 596 l 122 596 l 269 976 z "},"a":{"ha":1067,"x_min":-214,"x_max":1113,"o":"m 957 725 l 357 725 l 557 958 l 907 958 l 957 725 m 1113 1 l 764 1 l 669 379 l 472 379 l 193 1 l -214 1 l 283 636 l 976 636 l 1113 1 z "},"b":{"ha":1093,"x_min":11,"x_max":1114,"o":"m 1111 725 l 114 725 l 314 963 l 932 963 q 1114 767 1114 963 q 1111 725 1114 747 m 1103 633 q 994 503 1103 544 q 1038 431 1035 435 q 1053 342 1053 396 q 1053 314 1053 336 q 942 92 1044 176 q 769 0 863 24 l 11 1 l 196 633 l 1103 633 m 665 306 q 636 353 665 347 l 419 353 l 393 256 l 608 256 q 647 271 628 256 q 665 306 665 286 z "},"c":{"ha":1000,"x_min":50,"x_max":1071,"o":"m 1071 958 l 1003 725 l 171 725 q 268 882 197 814 q 432 958 347 958 l 1071 958 m 874 257 l 801 -1 l 361 -1 q 69 144 132 -1 q 57 268 50 189 q 63 324 58 283 l 144 633 l 489 635 l 389 328 q 397 290 393 310 q 449 257 410 265 l 874 257 z "},"d":{"ha":1068,"x_min":11,"x_max":1111,"o":"m 1094 725 l 132 725 l 281 958 l 840 958 q 1011 887 932 958 q 1094 725 1090 815 m 1111 635 q 1017 251 1111 390 q 878 92 940 139 q 563 -1 753 -1 l 11 -1 l 193 635 l 535 635 l 419 247 q 490 233 453 233 q 635 276 560 233 q 793 472 756 344 q 815 635 813 538 l 1111 635 z "},"e":{"ha":999,"x_min":-3,"x_max":1076,"o":"m 1076 958 l 1015 725 l 110 725 l 260 958 l 1076 958 m 986 635 l 919 382 l 468 382 l 432 251 l 879 251 l 813 1 l -3 1 l 167 635 l 986 635 z "},"f":{"ha":944,"x_min":-18,"x_max":1060,"o":"m 1060 958 l 993 725 l 92 725 l 240 958 l 1060 958 m 974 635 l 897 381 l 451 381 l 347 1 l -18 1 l 158 635 l 974 635 z "},"g":{"ha":1076,"x_min":50,"x_max":1135,"o":"m 1135 958 l 1078 726 l 171 726 q 268 879 196 807 q 433 958 347 958 l 1135 958 m 1053 600 l 979 328 q 886 143 949 217 q 535 1 765 1 l 368 1 q 72 139 126 1 q 50 240 50 194 q 64 329 50 278 l 150 635 l 478 635 l 396 349 q 389 314 389 325 q 417 278 389 286 l 614 278 q 669 349 656 289 l 672 365 l 467 363 l 614 600 l 1053 600 z "},"h":{"ha":1046,"x_min":-62,"x_max":1125,"o":"m 1125 958 l 1064 725 l 725 725 l 790 958 l 1125 958 m 540 958 l 478 725 l 144 725 l 206 958 l 540 958 m 1036 635 l 864 0 l 528 0 l 628 383 l 385 383 l 278 1 l -62 1 l 113 635 l 1036 635 z "},"i":{"ha":482,"x_min":-29,"x_max":567,"o":"m 567 958 l 503 725 l 168 725 l 235 958 l 567 958 m 482 635 l 308 1 l -29 1 l 147 635 l 482 635 z "},"j":{"ha":1051,"x_min":33,"x_max":1128,"o":"m 1128 958 l 1064 725 l 742 725 l 807 958 l 1128 958 m 1040 635 q 961 342 983 408 q 856 142 917 206 q 504 1 728 1 l 340 1 q 47 142 104 1 q 33 226 33 175 q 51 369 33 286 l 372 369 l 350 289 q 343 254 343 261 q 371 218 343 226 l 568 218 q 624 289 607 228 l 721 635 l 1040 635 z "},"k":{"ha":1178,"x_min":10,"x_max":1261,"o":"m 1261 956 l 1040 728 l 638 728 l 864 956 l 1261 956 m 614 958 l 549 725 l 218 725 l 285 958 l 614 958 m 999 1 l 653 1 l 457 388 l 346 1 l 10 1 l 193 635 l 956 635 l 769 447 l 999 1 z "},"l":{"ha":835,"x_min":-8,"x_max":861,"o":"m 600 958 l 531 726 l 194 726 l 258 956 l 600 958 m 861 238 l 667 1 l -8 1 l 171 635 l 508 635 l 397 239 l 861 238 z "},"m":{"ha":1272,"x_min":1,"x_max":1367,"o":"m 1367 958 l 1301 725 l 201 725 l 267 958 l 592 958 l 785 774 l 1021 958 l 1367 958 m 1279 635 l 1100 1 l 754 1 l 913 571 l 678 381 l 483 571 l 322 1 l 1 1 l 178 635 l 1279 635 z "},"n":{"ha":1028,"x_min":-39,"x_max":1142,"o":"m 1142 958 l 1072 726 l 163 726 l 228 958 l 543 958 l 749 763 l 799 958 l 1142 958 m 1054 635 l 885 1 l 536 1 l 643 386 l 440 571 l 279 0 l -39 0 l 135 635 l 1054 635 z "},"o":{"ha":1015,"x_min":64,"x_max":1094,"o":"m 1094 725 l 179 725 q 274 885 207 819 q 443 964 356 964 l 915 964 q 1094 774 1094 964 q 1094 725 1094 726 m 1075 636 l 1069 614 q 993 350 1047 542 q 886 147 958 229 q 536 0 756 0 l 371 0 q 160 50 238 0 q 64 235 64 110 q 85 376 64 301 l 154 633 l 478 633 l 382 296 q 376 260 376 272 q 401 225 376 232 l 603 225 q 658 296 640 235 l 758 635 l 1075 636 z "},"p":{"ha":1160,"x_min":57,"x_max":1244,"o":"m 1244 726 l 176 726 l 319 958 l 1104 958 q 1169 936 1136 958 q 1218 883 1203 914 q 1244 726 1244 835 m 1219 635 q 1193 554 1214 600 q 801 383 1111 383 l 482 383 l 375 1 l 57 1 l 231 633 l 1219 635 z "},"q":{"ha":1057,"x_min":57,"x_max":1085,"o":"m 1083 728 l 167 728 q 264 883 193 814 q 428 958 343 958 l 903 958 q 1085 768 1085 958 q 1083 728 1085 749 m 1060 635 l 997 379 q 879 144 961 233 q 861 131 876 142 l 971 -1 l 721 -1 l 693 29 q 526 0 608 0 l 364 0 q 71 144 128 0 q 57 238 57 181 q 75 375 57 304 l 144 635 l 471 635 l 374 292 q 367 258 367 268 q 394 222 367 231 l 526 222 l 411 354 l 665 354 l 740 635 l 1060 635 z "},"r":{"ha":1140,"x_min":4,"x_max":1203,"o":"m 1203 728 l 126 728 l 274 958 l 1064 958 q 1128 936 1096 958 q 1178 883 1161 914 q 1203 728 1203 838 m 1186 635 q 1089 475 1175 550 q 1024 432 1050 440 q 1056 326 1056 382 q 1046 236 1056 294 q 974 1 1040 200 l 663 1 l 774 383 l 446 383 l 328 1 l 4 1 l 190 635 l 1186 635 z "},"s":{"ha":1076,"x_min":-8,"x_max":1157,"o":"m 1157 958 l 1094 728 l 194 728 q 301 885 224 817 q 474 958 386 958 l 1157 958 m 922 89 q 750 0 867 32 l -8 1 l 65 265 l 590 263 q 658 329 658 271 q 649 376 658 364 q 607 400 640 389 l 339 400 q 211 444 251 400 q 171 586 171 488 q 171 635 171 635 l 785 635 q 936 590 897 621 q 1011 508 942 586 q 1038 357 1038 442 q 922 89 1038 203 z "},"t":{"ha":1015,"x_min":128,"x_max":1117,"o":"m 1117 958 l 1053 728 l 128 728 l 275 958 l 1117 958 m 757 635 l 589 1 l 271 1 l 443 635 l 757 635 z "},"u":{"ha":1031,"x_min":40,"x_max":1122,"o":"m 1122 954 l 1057 725 l 740 725 l 804 954 l 1122 954 m 544 954 l 481 725 l 168 725 l 233 953 l 544 954 m 1035 635 l 860 1 l 351 0 q 56 143 113 0 q 40 221 40 182 q 46 263 40 243 l 149 635 l 457 635 l 358 290 q 351 256 351 267 q 379 219 351 228 l 601 219 l 718 635 l 1035 635 z "},"v":{"ha":1279,"x_min":139,"x_max":1472,"o":"m 1472 956 l 1294 728 l 846 728 l 1011 958 l 1472 956 m 543 728 l 186 728 l 139 958 l 488 958 l 543 728 m 1215 636 l 683 1 l 335 1 l 203 636 l 563 636 l 614 424 l 765 635 l 1215 636 z "},"w":{"ha":1258,"x_min":0,"x_max":1351,"o":"m 1351 957 l 1294 726 l 965 726 l 1032 957 l 1351 957 m 603 958 l 539 726 l 197 726 l 263 958 l 603 958 m 1267 635 l 1090 0 l 768 1 l 569 181 l 332 1 l 0 0 l 176 635 l 517 635 l 446 401 l 682 590 l 872 401 l 942 635 l 1267 635 z "},"x":{"ha":1026,"x_min":-126,"x_max":1219,"o":"m 1219 957 l 996 726 l 324 728 l 268 954 l 617 954 l 643 846 l 746 956 l 1219 957 m 910 635 l 742 450 l 836 0 l 475 1 l 449 118 l 344 0 l -126 0 l 361 539 l 342 632 l 910 635 z "},"y":{"ha":879,"x_min":106,"x_max":1060,"o":"m 1060 961 l 850 726 l 171 726 l 121 957 l 469 957 l 496 850 l 599 963 l 1060 961 m 763 635 l 593 453 l 469 1 l 106 1 l 235 456 l 194 632 l 763 635 z "},"z":{"ha":1039,"x_min":22,"x_max":1117,"o":"m 1117 960 l 1057 728 l 135 728 l 285 958 l 1117 960 m 1040 636 l 522 257 l 929 257 l 858 1 l 22 1 l 97 260 l 642 635 l 1040 636 z "},"{":{"ha":482,"x_min":61,"x_max":565,"o":"m 321 533 q 169 369 272 418 q 236 232 235 328 q 207 60 236 174 q 168 -115 171 -87 q 183 -169 165 -156 q 242 -183 201 -182 l 260 -185 l 232 -290 l 201 -290 q 83 -231 110 -289 q 78 -92 61 -185 q 111 50 79 -79 q 139 175 135 147 q 142 215 142 196 q 63 318 142 311 l 90 428 q 218 517 172 426 q 268 636 253 583 l 356 636 q 321 533 339 576 m 378 728 l 389 771 q 426 871 408 847 q 521 907 456 910 l 538 906 l 565 1013 l 533 1013 q 444 1003 476 1014 q 319 850 365 974 q 286 726 311 825 l 378 726 l 378 728 z "},"|":{"ha":694,"x_min":278,"x_max":418,"o":"m 278 1061 l 418 1061 l 418 -328 l 278 -328 l 278 1061 z "},"}":{"ha":335,"x_min":-126,"x_max":358,"o":"m 182 492 q 253 360 186 404 q 107 193 156 315 q 43 -46 86 144 q 8 -146 25 -122 q -85 -186 -19 -186 l -103 -186 l -126 -292 l -96 -292 q -6 -278 -42 -292 q 115 -121 72 -246 q 156 47 126 -87 q 207 210 181 158 q 333 304 254 301 l 358 415 q 276 518 276 417 q 296 638 276 549 l 201 638 q 182 492 179 536 m 221 728 q 243 840 242 819 q 224 893 244 879 q 167 904 208 904 l 149 904 l 174 1011 l 204 1011 q 340 881 340 1011 q 333 819 340 853 q 314 728 329 796 l 221 728 z "},"~":{"ha":1157,"x_min":121,"x_max":1038,"o":"m 1038 544 l 1038 394 q 781 301 900 301 q 656 322 717 301 q 608 339 643 326 q 382 390 461 390 q 121 283 269 390 l 121 433 q 383 531 265 531 q 581 492 463 531 q 583 490 582 490 l 621 478 q 783 440 729 440 q 1038 544 894 440 z "},"¡":{"ha":458,"x_min":39,"x_max":418,"o":"m 418 999 l 385 796 l 178 796 l 210 999 l 418 999 m 319 692 l 251 0 l 39 0 l 215 692 l 319 692 z "},"¢":{"ha":829,"x_min":104,"x_max":826,"o":"m 826 526 q 822 465 826 497 l 818 433 l 563 433 l 565 453 q 567 479 567 463 q 503 533 567 533 l 472 533 q 401 497 421 533 q 385 413 393 481 l 372 303 q 367 236 367 254 q 429 182 367 182 l 460 182 q 543 269 535 182 l 546 299 l 801 299 l 797 253 q 699 47 785 108 q 471 -8 622 -8 l 453 -164 l 342 -164 l 360 -8 q 174 35 232 -8 q 104 208 104 85 q 110 288 104 244 l 128 429 q 221 656 149 588 q 450 725 293 725 l 465 851 l 576 851 l 561 725 q 747 689 685 725 q 826 526 826 642 z "},"£":{"ha":1013,"x_min":121,"x_max":1042,"o":"m 1042 810 q 1040 781 1042 793 l 1031 696 l 760 696 l 765 744 q 706 799 771 799 l 658 799 q 585 742 592 799 l 565 592 l 825 592 l 800 389 l 540 389 q 467 244 526 292 l 996 244 l 965 0 l 121 0 l 151 244 q 249 314 240 244 l 257 389 l 143 389 l 168 592 l 282 592 l 299 726 q 417 949 317 872 q 661 1022 511 1022 l 733 1022 q 939 978 857 1022 q 1042 810 1042 922 z "},"¤":{"ha":842,"x_min":46,"x_max":797,"o":"m 422 788 q 290 733 344 788 q 235 600 235 678 q 289 467 235 521 q 422 414 343 414 q 556 468 501 414 q 610 600 610 522 q 555 733 610 678 q 422 788 500 788 m 117 975 l 256 838 q 421 890 329 890 q 589 838 515 890 l 726 975 l 797 903 l 660 764 q 711 600 711 692 q 660 436 711 511 l 797 297 l 726 226 l 589 364 q 422 311 518 311 q 256 364 325 311 l 117 226 l 46 297 l 183 436 q 132 600 132 508 q 183 764 132 693 l 46 903 l 117 975 z "},"¥":{"ha":999,"x_min":122,"x_max":1133,"o":"m 1133 1010 l 874 618 l 964 618 l 946 479 l 781 479 l 725 396 l 881 396 l 865 271 l 688 271 l 654 0 l 356 0 l 389 271 l 193 271 l 208 396 l 382 396 l 346 479 l 163 479 l 181 618 l 289 618 l 122 1010 l 460 1010 l 586 650 l 799 1010 l 1133 1010 z "},"¦":{"ha":694,"x_min":278,"x_max":418,"o":"m 278 276 l 418 276 l 418 -237 l 278 -237 l 278 276 m 278 971 l 418 971 l 418 457 l 278 457 l 278 971 z "},"§":{"ha":764,"x_min":58,"x_max":747,"o":"m 747 383 q 661 183 747 256 q 711 61 711 138 q 585 -157 711 -93 q 397 -197 506 -197 q 178 -135 267 -197 q 78 61 78 -65 l 264 61 q 408 -50 264 -50 q 522 31 522 -50 q 403 103 522 75 q 179 167 228 144 q 58 336 58 224 q 144 533 58 467 q 94 658 94 578 q 189 857 94 790 q 408 914 271 914 q 628 853 540 914 q 728 658 728 785 l 542 658 q 397 767 542 767 q 283 689 283 767 q 403 617 283 644 q 626 553 578 575 q 747 383 747 496 m 547 350 q 488 436 547 407 q 378 458 442 458 q 258 369 258 458 q 428 261 258 261 q 547 350 547 261 z "},"¨":{"ha":701,"x_min":200,"x_max":811,"o":"m 251 976 l 497 976 l 446 842 l 200 842 l 251 976 m 565 976 l 811 976 l 760 842 l 514 842 l 565 976 z "},"©":{"ha":1014,"x_min":-11,"x_max":1053,"o":"m 1053 506 q 899 128 1053 283 q 522 -28 744 -28 q 144 127 299 -28 q -11 506 -11 282 q 144 883 -11 729 q 522 1036 299 1036 q 899 882 744 1036 q 1053 506 1053 728 m 953 506 q 828 811 953 686 q 522 936 703 936 q 215 812 340 936 q 89 506 89 688 q 214 197 89 322 q 522 72 339 72 q 828 198 704 72 q 953 506 953 324 m 792 408 q 711 259 782 315 q 544 203 640 203 q 331 289 411 203 q 250 508 250 375 q 328 729 250 644 q 542 814 407 814 q 707 761 639 814 q 792 614 775 708 l 672 614 q 627 692 664 664 q 539 719 590 719 q 410 656 454 719 q 369 511 369 599 q 415 367 369 429 q 544 297 465 297 q 631 328 594 297 q 672 408 668 360 l 792 408 z "},"ª":{"ha":701,"x_min":104,"x_max":811,"o":"m 251 976 l 497 976 l 351 596 l 104 596 l 251 976 m 565 976 l 811 976 l 664 596 l 418 596 l 565 976 z "},"«":{"ha":619,"x_min":13,"x_max":604,"o":"m 492 93 l 303 307 l 332 451 l 604 646 l 568 478 l 407 365 l 521 238 l 492 93 m 201 93 l 13 307 l 43 451 l 313 646 l 279 478 l 118 365 l 231 238 l 201 93 z "},"¬":{"ha":803,"x_min":58,"x_max":758,"o":"m 758 169 l 600 169 l 600 414 l 58 414 l 58 572 l 758 572 l 758 169 z "},"®":{"ha":1014,"x_min":-11,"x_max":1053,"o":"m 1053 506 q 899 128 1053 283 q 522 -28 744 -28 q 144 127 299 -28 q -11 506 -11 282 q 144 883 -11 729 q 522 1036 299 1036 q 899 882 744 1036 q 1053 506 1053 728 m 953 506 q 828 812 953 688 q 522 936 704 936 q 214 813 339 936 q 89 506 89 689 q 213 197 89 321 q 522 72 338 72 q 829 197 706 72 q 953 506 953 322 m 803 614 q 647 458 803 458 l 786 217 l 656 217 l 528 458 l 414 458 l 414 217 l 303 217 l 303 789 l 581 789 q 736 761 685 789 q 803 614 803 715 m 692 631 q 643 696 692 679 q 553 706 615 706 l 414 706 l 414 544 l 583 544 q 661 560 638 544 q 692 631 692 579 z "},"°":{"ha":551,"x_min":75,"x_max":492,"o":"m 492 800 q 431 653 492 714 q 283 592 369 592 q 135 652 196 592 q 75 800 75 713 q 136 947 75 886 q 283 1008 197 1008 q 431 947 369 1008 q 492 800 492 886 m 408 800 q 372 888 408 851 q 283 925 335 925 q 195 888 232 925 q 158 800 158 851 q 194 711 158 747 q 283 675 231 675 q 372 711 336 675 q 408 800 408 747 z "},"±":{"ha":663,"x_min":67,"x_max":844,"o":"m 786 451 l 567 449 l 514 261 l 346 260 l 403 447 l 178 447 l 232 625 l 458 625 l 522 833 l 685 833 l 619 626 l 844 625 l 786 451 m 690 -1 l 67 -1 l 117 174 l 739 174 l 690 -1 z "},"²":{"ha":336,"x_min":17,"x_max":556,"o":"m 556 883 q 540 957 556 931 q 468 1010 511 1010 l 283 1010 q 187 972 233 1010 q 125 883 140 933 l 556 883 m 17 488 l 451 489 l 488 617 l 269 617 q 400 682 294 638 q 481 725 456 706 q 547 838 532 764 l 357 838 q 357 833 357 835 q 281 772 357 808 q 117 676 165 718 q 17 488 24 600 z "},"³":{"ha":335,"x_min":15,"x_max":517,"o":"m 517 878 q 501 953 517 924 q 429 1004 474 1004 l 242 1004 q 145 966 192 1004 q 82 878 99 928 l 517 878 m 239 693 q 311 661 311 693 q 257 608 311 626 q 224 604 240 604 q 192 628 192 604 q 193 643 192 635 l 24 643 q 19 576 15 596 q 147 479 39 479 l 288 479 q 410 553 358 493 q 463 686 463 614 q 439 754 463 728 q 501 831 481 790 l 210 831 l 174 693 l 239 693 z "},"´":{"ha":739,"x_min":338,"x_max":729,"o":"m 729 1051 l 464 800 l 338 800 l 517 1051 l 729 1051 z "},"¶":{"ha":764,"x_min":35,"x_max":742,"o":"m 742 914 l 636 914 l 636 -306 l 536 -306 l 536 914 l 419 914 l 419 -306 l 319 -306 l 319 369 q 108 469 182 382 q 35 696 35 557 q 108 908 35 813 q 300 1014 188 1014 l 742 1014 l 742 914 z "},"¸":{"ha":739,"x_min":133,"x_max":547,"o":"m 545 -155 q 544 -160 545 -155 q 538 -187 543 -165 q 450 -306 513 -276 q 306 -326 407 -326 l 133 -326 l 164 -219 l 340 -219 q 393 -186 383 -219 q 363 -157 397 -157 l 279 -157 l 324 0 l 421 0 l 404 -61 l 457 -61 q 547 -133 547 -61 q 545 -155 547 -144 m 545 -155 q 544 -160 545 -155 q 538 -187 543 -165 q 450 -306 513 -276 q 306 -326 407 -326 l 133 -326 l 164 -219 l 340 -219 q 393 -186 383 -219 q 363 -157 397 -157 l 279 -157 l 324 0 l 421 0 l 404 -61 l 457 -61 q 547 -133 547 -61 q 545 -155 547 -144 z "},"¹":{"ha":481,"x_min":206,"x_max":490,"o":"m 449 844 l 365 540 l 206 540 l 290 844 l 449 844 m 461 886 l 257 886 l 328 996 l 490 996 l 461 886 z "},"º":{"ha":638,"x_min":60,"x_max":583,"o":"m 583 713 q 531 549 583 593 q 357 504 479 504 l 286 504 q 115 547 167 504 q 60 713 60 594 l 60 810 q 115 975 60 928 q 286 1018 165 1018 l 357 1018 q 528 975 476 1018 q 583 810 583 928 l 583 713 m 382 722 l 382 799 q 381 849 382 842 q 332 878 375 878 l 311 878 q 267 854 276 878 q 261 799 261 840 l 261 722 q 264 664 261 671 q 311 644 271 644 l 332 644 q 378 667 369 644 q 382 722 382 675 z "},"»":{"ha":764,"x_min":149,"x_max":713,"o":"m 713 467 l 693 306 l 438 100 l 457 264 l 611 386 l 488 511 l 507 669 l 713 467 m 424 467 l 404 306 l 149 100 l 168 264 l 322 386 l 199 511 l 218 669 l 424 467 z "},"¼":{"ha":957,"x_min":69,"x_max":982,"o":"m 313 846 l 229 540 l 69 540 l 154 846 l 313 846 m 325 888 l 121 888 l 192 996 l 354 996 l 325 888 m 558 506 l 522 383 l 689 383 l 724 506 l 558 506 m 815 506 l 781 383 l 949 383 l 982 506 l 815 506 m 676 -6 l 725 165 l 467 164 l 511 336 l 676 336 l 664 292 l 758 292 l 769 336 l 938 336 l 846 -7 l 676 -6 m 164 -125 l 500 1028 l 593 1028 l 256 -125 l 164 -125 z "},"½":{"ha":939,"x_min":79,"x_max":919,"o":"m 322 846 l 239 540 l 79 540 l 164 846 l 322 846 m 335 888 l 131 888 l 201 996 l 364 996 l 335 888 m 919 353 q 907 418 919 394 q 842 464 881 464 l 678 464 q 592 431 633 464 q 536 353 551 397 l 919 353 m 442 1 l 826 1 l 860 115 l 665 115 q 760 165 693 139 q 854 213 826 190 q 913 311 899 246 l 743 311 q 743 307 743 310 q 675 253 743 285 q 531 169 574 206 q 442 1 447 101 m 175 -121 l 511 1032 l 604 1032 l 267 -121 l 175 -121 z "},"¾":{"ha":1215,"x_min":58,"x_max":1253,"o":"m 557 883 q 538 967 557 932 q 469 1011 514 1011 l 285 1011 q 188 972 233 1011 q 125 883 143 933 l 557 883 m 282 694 q 353 664 353 694 q 299 610 353 629 q 265 604 281 604 q 233 629 233 604 q 236 644 233 636 l 67 644 q 63 578 58 597 q 190 478 83 478 l 329 478 q 452 554 401 493 q 503 688 503 615 q 481 757 503 731 q 543 835 522 793 l 253 835 l 215 694 l 282 694 m 801 544 l 763 414 l 940 414 l 976 544 l 801 544 m 1074 544 l 1039 414 l 1217 414 l 1253 544 l 1074 544 m 925 0 l 978 182 l 703 181 l 751 365 l 926 365 l 914 317 l 1014 317 l 1026 365 l 1206 365 l 1106 -1 l 925 0 m 396 -129 l 732 1025 l 825 1025 l 488 -129 l 396 -129 z "},"¿":{"ha":843,"x_min":31,"x_max":876,"o":"m 853 425 q 804 461 839 443 q 725 501 782 472 q 692 536 714 508 q 685 558 690 543 q 693 606 679 575 l 419 604 q 407 456 399 499 q 494 361 421 394 q 563 292 563 332 q 483 203 563 238 q 397 183 440 183 q 311 253 314 183 q 324 321 311 281 l 60 321 q 31 183 31 242 q 318 -1 31 -1 q 588 49 457 -1 q 832 239 756 114 q 874 357 876 313 q 853 425 874 372 m 839 999 l 531 999 l 463 758 l 767 758 l 839 999 z "},"Ã":{"ha":1067,"x_min":-214,"x_max":1113,"o":"m 957 725 l 357 725 l 557 958 l 907 958 l 957 725 m 1113 1 l 764 1 l 669 379 l 472 379 l 193 1 l -214 1 l 283 636 l 976 636 l 1113 1 m 974 1185 q 793 1017 908 1017 q 740 1024 769 1017 l 682 1038 q 643 1046 647 1046 q 589 999 610 1046 l 485 999 q 661 1161 546 1161 q 722 1154 694 1161 l 783 1139 l 817 1135 q 869 1185 850 1135 l 974 1185 z "},"Ä":{"ha":1067,"x_min":-214,"x_max":1113,"o":"m 957 725 l 357 725 l 557 958 l 907 958 l 957 725 m 1113 1 l 764 1 l 669 379 l 472 379 l 193 1 l -214 1 l 283 636 l 976 636 l 1113 1 m 507 1135 l 753 1135 l 701 1000 l 456 1000 l 507 1135 m 821 1135 l 1067 1135 l 1015 1000 l 769 1000 l 821 1135 z "},"Æ":{"ha":424,"x_min":122,"x_max":515,"o":"m 269 976 l 515 976 l 368 596 l 122 596 l 269 976 z "},"Ç":{"ha":1000,"x_min":57,"x_max":1071,"o":"m 1071 958 l 1003 725 l 171 725 q 268 882 197 814 q 432 958 347 958 l 1071 958 m 874 257 l 801 -1 l 361 -1 q 69 144 132 -1 q 57 268 50 189 q 63 324 58 283 l 144 633 l 489 635 l 389 328 q 397 290 393 310 q 449 257 410 265 l 874 257 m 642 -119 q 641 -124 642 -119 q 635 -151 640 -129 q 547 -269 610 -240 q 403 -290 504 -290 l 231 -290 l 261 -183 l 438 -183 q 490 -150 481 -183 q 460 -121 494 -121 l 376 -121 l 421 36 l 518 36 l 501 -25 l 554 -25 q 644 -97 644 -25 q 642 -119 644 -108 m 642 -119 q 641 -124 642 -119 q 635 -151 640 -129 q 547 -269 610 -240 q 403 -290 504 -290 l 231 -290 l 261 -183 l 438 -183 q 490 -150 481 -183 q 460 -121 494 -121 l 376 -121 l 421 36 l 518 36 l 501 -25 l 554 -25 q 644 -97 644 -25 q 642 -119 644 -108 z "},"Ñ":{"ha":328,"x_min":38,"x_max":354,"o":"m 308 824 l 215 475 l 38 475 l 132 824 l 308 824 m 322 871 l 96 871 l 174 996 l 354 996 l 322 871 z "},"Õ":{"ha":1015,"x_min":64,"x_max":1094,"o":"m 1094 725 l 179 725 q 274 885 207 819 q 443 964 356 964 l 915 964 q 1094 774 1094 964 q 1094 725 1094 726 m 1075 636 l 1069 614 q 993 350 1047 542 q 886 147 958 229 q 536 0 756 0 l 371 0 q 160 50 238 0 q 64 235 64 110 q 85 376 64 301 l 154 633 l 478 633 l 382 296 q 376 260 376 272 q 401 225 376 232 l 603 225 q 658 296 640 235 l 758 635 l 1075 636 m 933 1186 q 753 1018 868 1018 q 700 1025 729 1018 l 642 1039 q 603 1047 607 1047 q 549 1000 569 1047 l 444 1000 q 621 1163 506 1163 q 682 1156 654 1163 l 743 1140 l 776 1136 q 829 1186 810 1136 l 933 1186 z "},"Ö":{"ha":1015,"x_min":64,"x_max":1094,"o":"m 1094 725 l 179 725 q 274 885 207 819 q 443 964 356 964 l 915 964 q 1094 774 1094 964 q 1094 725 1094 726 m 1075 636 l 1069 614 q 993 350 1047 542 q 886 147 958 229 q 536 0 756 0 l 371 0 q 160 50 238 0 q 64 235 64 110 q 85 376 64 301 l 154 633 l 478 633 l 382 296 q 376 260 376 272 q 401 225 376 232 l 603 225 q 658 296 640 235 l 758 635 l 1075 636 m 443 1136 l 689 1136 l 638 1001 l 392 1001 l 443 1136 m 757 1136 l 1003 1136 l 951 1001 l 706 1001 l 757 1136 z "},"×":{"ha":803,"x_min":90,"x_max":743,"o":"m 743 114 l 625 -4 l 417 204 l 208 -4 l 90 114 l 299 322 l 90 531 l 208 649 l 417 440 l 625 649 l 743 531 l 535 322 l 743 114 z "},"Ü":{"ha":1031,"x_min":40,"x_max":1122,"o":"m 1122 954 l 1057 725 l 740 725 l 804 954 l 1122 954 m 544 954 l 481 725 l 168 725 l 233 953 l 544 954 m 1035 635 l 860 1 l 351 0 q 56 143 113 0 q 40 221 40 182 q 46 263 40 243 l 149 635 l 457 635 l 358 290 q 351 256 351 267 q 379 219 351 228 l 601 219 l 718 635 l 1035 635 m 450 1136 l 696 1136 l 644 1001 l 399 1001 l 450 1136 m 764 1136 l 1010 1136 l 958 1001 l 713 1001 l 764 1136 z "},"ß":{"ha":942,"x_min":-65,"x_max":993,"o":"m 464 636 l 278 1 l -65 3 l 121 639 l 464 636 m 464 636 m 533 640 m 899 636 q 835 582 871 596 q 950 449 950 551 q 949 421 950 435 l 946 404 q 938 372 943 393 l 901 250 q 740 39 857 100 q 472 -8 646 -8 q 343 0 424 -8 l 400 193 l 450 189 q 563 272 538 189 l 600 400 q 604 417 601 406 q 550 468 610 461 q 483 471 529 471 l 532 633 l 899 636 m 147 726 l 156 754 q 592 1018 233 1019 l 703 1018 q 993 857 993 1018 q 992 831 993 844 l 989 814 q 983 797 983 803 l 961 726 l 147 726 m 146 726 l 961 726 l 146 726 m 118 640 l 464 640 l 118 640 m 532 643 l 899 643 l 532 643 z "},"ã":{"ha":1067,"x_min":-214,"x_max":1113,"o":"m 957 725 l 357 725 l 557 958 l 907 958 l 957 725 m 1113 1 l 764 1 l 669 379 l 472 379 l 193 1 l -214 1 l 283 636 l 976 636 l 1113 1 m 974 1185 q 793 1017 908 1017 q 740 1024 769 1017 l 682 1038 q 643 1046 647 1046 q 589 999 610 1046 l 485 999 q 661 1161 546 1161 q 722 1154 694 1161 l 783 1139 l 817 1135 q 869 1185 850 1135 l 974 1185 z "},"ä":{"ha":1067,"x_min":-214,"x_max":1113,"o":"m 957 725 l 357 725 l 557 958 l 907 958 l 957 725 m 1113 1 l 764 1 l 669 379 l 472 379 l 193 1 l -214 1 l 283 636 l 976 636 l 1113 1 m 507 1135 l 753 1135 l 701 1000 l 456 1000 l 507 1135 m 821 1135 l 1067 1135 l 1015 1000 l 769 1000 l 821 1135 z "},"õ":{"ha":1015,"x_min":64,"x_max":1094,"o":"m 1094 725 l 179 725 q 274 885 207 819 q 443 964 356 964 l 915 964 q 1094 774 1094 964 q 1094 725 1094 726 m 1075 636 l 1069 614 q 993 350 1047 542 q 886 147 958 229 q 536 0 756 0 l 371 0 q 160 50 238 0 q 64 235 64 110 q 85 376 64 301 l 154 633 l 478 633 l 382 296 q 376 260 376 272 q 401 225 376 232 l 603 225 q 658 296 640 235 l 758 635 l 1075 636 m 933 1186 q 753 1018 868 1018 q 700 1025 729 1018 l 642 1039 q 603 1047 607 1047 q 549 1000 569 1047 l 444 1000 q 621 1163 506 1163 q 682 1156 654 1163 l 743 1140 l 776 1136 q 829 1186 810 1136 l 933 1186 z "},"ö":{"ha":1015,"x_min":64,"x_max":1094,"o":"m 1094 725 l 179 725 q 274 885 207 819 q 443 964 356 964 l 915 964 q 1094 774 1094 964 q 1094 725 1094 726 m 1075 636 l 1069 614 q 993 350 1047 542 q 886 147 958 229 q 536 0 756 0 l 371 0 q 160 50 238 0 q 64 235 64 110 q 85 376 64 301 l 154 633 l 478 633 l 382 296 q 376 260 376 272 q 401 225 376 232 l 603 225 q 658 296 640 235 l 758 635 l 1075 636 m 443 1136 l 689 1136 l 638 1001 l 392 1001 l 443 1136 m 757 1136 l 1003 1136 l 951 1001 l 706 1001 l 757 1136 z "},"÷":{"ha":669,"x_min":46,"x_max":718,"o":"m 668 403 l 46 403 l 94 579 l 718 579 l 668 403 m 265 214 l 300 358 l 460 357 l 426 214 l 265 214 m 314 624 l 349 763 l 510 764 l 478 625 l 314 624 z "},"ü":{"ha":1031,"x_min":40,"x_max":1122,"o":"m 1122 954 l 1057 725 l 740 725 l 804 954 l 1122 954 m 544 954 l 481 725 l 168 725 l 233 953 l 544 954 m 1035 635 l 860 1 l 351 0 q 56 143 113 0 q 40 221 40 182 q 46 263 40 243 l 149 635 l 457 635 l 358 290 q 351 256 351 267 q 379 219 351 228 l 601 219 l 718 635 l 1035 635 m 450 1136 l 696 1136 l 644 1001 l 399 1001 l 450 1136 m 764 1136 l 1010 1136 l 958 1001 l 713 1001 l 764 1136 z "},"ƒ":{"ha":481,"x_min":1,"x_max":581,"o":"m 581 1014 l 563 869 l 493 869 q 444 817 451 869 l 435 739 l 551 739 l 536 608 l 419 608 l 331 -117 q 124 -306 307 -306 l 1 -306 l 19 -161 l 89 -161 q 136 -108 129 -161 l 225 608 l 119 608 l 135 739 l 240 739 l 251 825 q 458 1014 276 1014 l 581 1014 z "},"ˆ":{"ha":739,"x_min":233,"x_max":708,"o":"m 708 800 l 582 800 l 486 925 l 358 800 l 233 800 l 413 1051 l 590 1051 l 708 800 z "},"ˇ":{"ha":739,"x_min":264,"x_max":739,"o":"m 739 1051 l 560 800 l 382 800 l 264 1051 l 389 1051 l 486 925 l 613 1051 l 739 1051 z "},"¯":{"ha":739,"x_min":271,"x_max":700,"o":"m 700 976 l 688 871 l 271 871 l 283 976 l 700 976 z "},"˘":{"ha":739,"x_min":274,"x_max":722,"o":"m 722 1028 q 641 872 700 921 q 474 822 582 822 q 320 872 367 822 q 274 1028 274 921 l 385 1028 q 488 939 385 939 q 611 1028 593 939 l 722 1028 z "},"˙":{"ha":739,"x_min":382,"x_max":590,"o":"m 590 1010 l 569 835 l 382 835 l 403 1010 l 590 1010 z "},"˚":{"ha":739,"x_min":294,"x_max":685,"o":"m 685 976 q 683 956 685 963 q 612 825 675 876 q 467 774 549 774 q 343 817 392 774 q 294 935 294 861 q 369 1085 294 1024 q 511 1135 431 1135 q 635 1092 585 1135 q 685 976 685 1049 m 558 958 q 497 1018 558 1018 q 446 1000 468 1018 q 421 954 424 982 q 482 890 413 890 q 535 910 511 890 q 558 958 558 929 z "},"˛":{"ha":739,"x_min":264,"x_max":506,"o":"m 506 0 l 439 -90 q 415 -131 418 -118 q 426 -142 415 -142 l 483 -142 l 468 -274 l 346 -274 q 290 -267 308 -274 q 264 -224 264 -256 q 288 -151 264 -185 q 315 -119 296 -140 l 429 0 l 506 0 z "},"˜":{"ha":739,"x_min":242,"x_max":731,"o":"m 731 1018 q 550 850 665 850 q 497 857 526 850 l 439 871 q 400 879 404 879 q 346 832 367 879 l 242 832 q 418 994 303 994 q 479 988 451 994 l 540 972 l 574 968 q 626 1018 607 968 l 731 1018 z "},"˝":{"ha":739,"x_min":304,"x_max":824,"o":"m 824 1051 l 589 800 l 485 800 l 631 1051 l 824 1051 m 606 1051 l 401 800 l 304 800 l 421 1051 l 606 1051 z "},"†":{"ha":764,"x_min":110,"x_max":813,"o":"m 813 672 l 793 511 l 540 511 l 444 -272 l 264 -272 l 360 511 l 110 511 l 129 672 l 379 672 l 418 983 l 607 983 l 568 672 l 813 672 z "},"‡":{"ha":764,"x_min":47,"x_max":807,"o":"m 807 672 l 788 511 l 546 511 l 508 208 l 750 208 l 731 47 l 489 47 l 450 -272 l 261 -272 l 300 47 l 47 47 l 67 208 l 319 208 l 357 511 l 104 511 l 124 672 l 376 672 l 415 983 l 604 983 l 565 672 l 807 672 z "},"‰":{"ha":1682,"x_min":185,"x_max":1642,"o":"m 1086 1022 l 371 8 l 260 8 l 964 1022 l 1086 1022 m 433 1006 l 542 1007 q 632 914 632 1008 q 632 893 632 904 l 239 893 q 290 971 253 936 q 369 1006 328 1006 l 433 1006 m 349 700 l 353 719 l 389 847 l 229 847 l 194 718 q 185 651 185 683 q 258 546 185 571 q 338 533 286 536 l 356 532 q 582 704 538 540 q 597 758 586 717 l 621 846 l 463 847 l 424 701 q 385 669 417 671 q 347 693 347 668 q 349 700 347 696 m 953 468 l 1061 468 q 1151 375 1151 469 q 1151 354 1151 365 l 758 354 q 807 431 772 397 q 888 468 847 468 l 953 468 m 867 161 l 872 181 l 908 308 l 749 308 l 714 179 q 704 113 704 144 q 778 7 704 32 q 856 -6 806 -3 l 875 -7 q 1101 165 1057 1 q 1117 219 1106 178 l 1139 307 l 982 308 l 943 163 q 904 131 935 132 q 867 154 867 129 q 867 161 867 157 m 1442 468 l 1551 468 q 1642 375 1642 469 q 1640 354 1642 365 l 1249 354 q 1299 433 1263 397 q 1378 468 1336 468 l 1442 468 m 1357 161 l 1363 181 l 1399 308 l 1239 308 l 1203 179 q 1194 113 1194 144 q 1268 7 1194 32 q 1346 -6 1296 -3 l 1364 -7 q 1592 165 1547 1 q 1606 219 1596 178 l 1629 307 l 1472 308 l 1433 163 q 1393 131 1425 132 q 1357 154 1357 129 q 1357 161 1357 157 z "},"™":{"ha":1157,"x_min":140,"x_max":981,"o":"m 544 992 l 678 992 l 764 767 l 847 992 l 981 992 l 981 621 l 889 621 l 889 899 l 785 621 l 743 621 l 636 899 l 636 621 l 544 621 l 544 992 m 140 992 l 469 992 l 469 915 l 356 915 l 356 621 l 254 621 l 254 915 l 140 915 l 140 992 z "}}}
